0
SECTION
2
HEADER
9
$HANDSEED
5
43
9
$INSUNITS
70
4
9
$ACADVER
1
AC1021
0
ENDSEC
0
SECTION
2
CLASSES
0
ENDSEC
0
SECTION
2
TABLES
0
TABLE
2
LTYPE
5
41
330
0
100
AcDbSymbolTable
70
7
0
LTYPE
5
2
330
41
100
AcDbSymbolTableRecord
100
AcDbLinetypeTableRecord
2
CONTINUOUS
3
______
70
0
72
65
73
0
40
0
0
LTYPE
5
3
330
41
100
AcDbSymbolTableRecord
100
AcDbLinetypeTableRecord
2
DASHED
3
_ _ _ 
70
0
72
65
73
2
40
10
49
5
74
0
49
-5
74
0
0
LTYPE
5
4
330
41
100
AcDbSymbolTableRecord
100
AcDbLinetypeTableRecord
2
DOTTED
3
. . . 
70
0
72
65
73
2
40
5
49
0
74
0
49
-5
74
0
0
LTYPE
5
6
330
41
100
AcDbSymbolTableRecord
100
AcDbLinetypeTableRecord
2
ByBlock
3

70
0
72
65
73
0
40
0
0
LTYPE
5
7
330
41
100
AcDbSymbolTableRecord
100
AcDbLinetypeTableRecord
2
ByLayer
3

70
0
72
65
73
0
40
0
0
LTYPE
5
16
330
41
100
AcDbSymbolTableRecord
100
AcDbLinetypeTableRecord
2
DASHDOT
3
Dash dot
70
0
72
65
73
4
40
10.5
49
6
74
0
49
-2
74
0
49
0.5
74
0
49
-2
74
0
0
LTYPE
5
17
330
41
100
AcDbSymbolTableRecord
100
AcDbLinetypeTableRecord
2
CENTER
3
Center
70
0
72
65
73
4
40
13.5
49
8
74
0
49
-2
74
0
49
1.5
74
0
49
-2
74
0
0
ENDTAB
0
TABLE
2
LAYER
5
42
330
0
100
AcDbSymbolTable
70
1
0
LAYER
5
18
330
42
100
AcDbSymbolTableRecord
100
AcDbLayerTableRecord
2
0
420
16777215
70
0
6
CONTINUOUS
390
1
0
ENDTAB
0
TABLE
2
VPORT
5
8
330
0
100
AcDbSymbolTable
70
1
0
VPORT
5
E
330
8
100
AcDbSymbolTableRecord
100
AcDbViewportTableRecord
2
*ACTIVE
40
1000
70
0
0
ENDTAB
0
TABLE
2
STYLE
5
9
330
0
100
AcDbSymbolTable
70
1
0
STYLE
5
F
330
9
100
AcDbSymbolTableRecord
100
AcDbTextStyleTableRecord
2
standard
70
0
40
0
41
1
50
0
71
0
42
1
3
txt
4

0
ENDTAB
0
TABLE
2
VIEW
5
A
330
0
100
AcDbSymbolTable
70
0
0
ENDTAB
0
TABLE
2
UCS
5
B
330
0
100
AcDbSymbolTable
70
0
0
ENDTAB
0
TABLE
2
APPID
5
C
330
0
100
AcDbSymbolTable
70
2
0
APPID
5
10
330
C
100
AcDbSymbolTableRecord
100
AcDbRegAppTableRecord
2
ACAD
70
0
0
APPID
5
700007
330
C
100
AcDbSymbolTableRecord
100
AcDbRegAppTableRecord
2
WEBCAD_DIM
70
0
0
ENDTAB
0
TABLE
2
DIMSTYLE
5
D
330
0
100
AcDbSymbolTable
100
AcDbDimStyleTable
70
1
71
1
0
DIMSTYLE
105
700008
330
D
100
AcDbSymbolTableRecord
100
AcDbDimStyleTableRecord
2
Standard
70
0
40
1
41
1.8
42
4.5
44
4.5
140
2.5
147
1.5
71
0
72
0
73
0
74
0
75
0
77
1
170
0
171
2
172
0
173
0
174
0
175
0
176
256
177
256
178
256
271
2
277
2
278
46
279
2
280
0
283
0
340
F
371
-2
372
-2
0
ENDTAB
0
TABLE
2
BLOCK_RECORD
5
38
330
0
100
AcDbSymbolTable
70
8
0
BLOCK_RECORD
5
39
330
38
100
AcDbSymbolTableRecord
100
AcDbBlockTableRecord
2
*Model_Space
70
0
280
0
281
1
0
BLOCK_RECORD
5
3A
330
38
100
AcDbSymbolTableRecord
100
AcDbBlockTableRecord
2
*Paper_Space
70
0
280
0
281
1
0
BLOCK_RECORD
5
3B
330
38
100
AcDbSymbolTableRecord
100
AcDbBlockTableRecord
2
*D1
70
0
280
0
281
1
0
BLOCK_RECORD
5
3C
330
38
100
AcDbSymbolTableRecord
100
AcDbBlockTableRecord
2
*D2
70
0
280
0
281
1
0
BLOCK_RECORD
5
3D
330
38
100
AcDbSymbolTableRecord
100
AcDbBlockTableRecord
2
*D3
70
0
280
0
281
1
0
BLOCK_RECORD
5
3E
330
38
100
AcDbSymbolTableRecord
100
AcDbBlockTableRecord
2
*D4
70
0
280
0
281
1
0
BLOCK_RECORD
5
3F
330
38
100
AcDbSymbolTableRecord
100
AcDbBlockTableRecord
2
*D5
70
0
280
0
281
1
0
BLOCK_RECORD
5
40
330
38
100
AcDbSymbolTableRecord
100
AcDbBlockTableRecord
2
*D6
70
0
280
0
281
1
0
ENDTAB
0
ENDSEC
0
SECTION
2
BLOCKS
0
BLOCK
5
11
330
0
100
AcDbEntity
100
AcDbBlockBegin
2
*Model_Space
70
0
10
0
20
0
30
0
3
*Model_Space
1

0
ENDBLK
5
12
330
0
100
AcDbEntity
100
AcDbBlockEnd
0
BLOCK
5
13
330
0
100
AcDbEntity
100
AcDbBlockBegin
2
*Paper_Space
70
0
10
0
20
0
30
0
3
*Paper_Space
1

0
ENDBLK
5
14
330
0
100
AcDbEntity
100
AcDbBlockEnd
0
BLOCK
5
19
330
0
100
AcDbEntity
100
AcDbBlockBegin
8
0
2
*D1
70
1
10
0
20
0
30
0
3
*D1
1

0
LINE
5
700009
330
19
100
AcDbEntity
100
AcDbLine
8
0
420
14870768
10
-772
20
800
30
0
11
-772
21
822.4231584798875
31
0
0
LINE
5
70000A
330
19
100
AcDbEntity
100
AcDbLine
8
0
420
14870768
10
-746
20
800
30
0
11
-746
21
822.4231584798875
31
0
0
LINE
5
70000B
330
19
100
AcDbEntity
100
AcDbLine
8
0
420
14870768
10
-772
20
822.4231584798875
30
0
11
-746
21
822.4231584798875
31
0
0
LINE
5
70000C
330
19
100
AcDbEntity
100
AcDbLine
8
0
420
14870768
10
-772
20
824.2231584798875
30
0
11
-772
21
820.6231584798876
31
0
0
LINE
5
70000D
330
19
100
AcDbEntity
100
AcDbLine
8
0
420
14870768
10
-746
20
824.2231584798875
30
0
11
-746
21
820.6231584798876
31
0
0
TEXT
5
70000E
330
19
100
AcDbEntity
100
AcDbText
8
0
420
14870768
10
-759
20
825.6731584798875
30
0
11
-759
21
825.6731584798875
31
0
40
2.5
1
26
50
0
72
1
73
2
0
ENDBLK
5
1A
330
0
100
AcDbEntity
100
AcDbBlockEnd
8
0
0
BLOCK
5
1B
330
0
100
AcDbEntity
100
AcDbBlockBegin
8
0
2
*D2
70
1
10
0
20
0
30
0
3
*D2
1

0
LINE
5
70000F
330
1B
100
AcDbEntity
100
AcDbLine
8
0
420
14870768
10
-780
20
800
30
0
11
-780
21
837.9941449766555
31
0
0
LINE
5
700010
330
1B
100
AcDbEntity
100
AcDbLine
8
0
420
14870768
10
-738
20
800
30
0
11
-738
21
837.9941449766555
31
0
0
LINE
5
700011
330
1B
100
AcDbEntity
100
AcDbLine
8
0
420
14870768
10
-780
20
837.9941449766555
30
0
11
-738
21
837.9941449766555
31
0
0
LINE
5
700012
330
1B
100
AcDbEntity
100
AcDbLine
8
0
420
14870768
10
-780
20
839.7941449766555
30
0
11
-780
21
836.1941449766556
31
0
0
LINE
5
700013
330
1B
100
AcDbEntity
100
AcDbLine
8
0
420
14870768
10
-738
20
839.7941449766555
30
0
11
-738
21
836.1941449766556
31
0
0
TEXT
5
700014
330
1B
100
AcDbEntity
100
AcDbText
8
0
420
14870768
10
-759
20
841.2441449766555
30
0
11
-759
21
841.2441449766555
31
0
40
2.5
1
42
50
0
72
1
73
2
0
ENDBLK
5
1C
330
0
100
AcDbEntity
100
AcDbBlockEnd
8
0
0
BLOCK
5
1D
330
0
100
AcDbEntity
100
AcDbBlockBegin
8
0
2
*D3
70
1
10
0
20
0
30
0
3
*D3
1

0
LINE
5
700015
330
1D
100
AcDbEntity
100
AcDbLine
8
0
420
14870768
10
-734.5
20
800
30
0
11
-731.377800546949
21
800
31
0
0
LINE
5
700016
330
1D
100
AcDbEntity
100
AcDbLine
8
0
420
14870768
10
-734.5
20
815
30
0
11
-731.377800546949
21
815
31
0
0
LINE
5
700017
330
1D
100
AcDbEntity
100
AcDbLine
8
0
420
14870768
10
-731.377800546949
20
800
30
0
11
-731.377800546949
21
815
31
0
0
LINE
5
700018
330
1D
100
AcDbEntity
100
AcDbLine
8
0
420
14870768
10
-733.1778005469489
20
800
30
0
11
-729.577800546949
21
800
31
0
0
LINE
5
700019
330
1D
100
AcDbEntity
100
AcDbLine
8
0
420
14870768
10
-733.1778005469489
20
815
30
0
11
-729.577800546949
21
815
31
0
0
TEXT
5
70001A
330
1D
100
AcDbEntity
100
AcDbText
8
0
420
14870768
10
-734.627800546949
20
807.5
30
0
11
-734.627800546949
21
807.5
31
0
40
2.5
1
15
50
90
72
1
73
2
0
ENDBLK
5
1E
330
0
100
AcDbEntity
100
AcDbBlockEnd
8
0
0
BLOCK
5
1F
330
0
100
AcDbEntity
100
AcDbBlockBegin
8
0
2
*D4
70
1
10
0
20
0
30
0
3
*D4
1

0
LINE
5
70001B
330
1F
100
AcDbEntity
100
AcDbLine
8
0
420
14870768
10
-760
20
770
30
0
11
-760
21
770
31
0
0
LINE
5
70001C
330
1F
100
AcDbEntity
100
AcDbLine
8
0
420
14870768
10
-760
20
815
30
0
11
-760
21
815
31
0
0
LINE
5
70001D
330
1F
100
AcDbEntity
100
AcDbLine
8
0
420
14870768
10
-760
20
770
30
0
11
-760
21
815
31
0
0
LINE
5
70001E
330
1F
100
AcDbEntity
100
AcDbLine
8
0
420
14870768
10
-761.8
20
770
30
0
11
-758.2
21
770
31
0
0
LINE
5
70001F
330
1F
100
AcDbEntity
100
AcDbLine
8
0
420
14870768
10
-761.8
20
815
30
0
11
-758.2
21
815
31
0
0
TEXT
5
700020
330
1F
100
AcDbEntity
100
AcDbText
8
0
420
14870768
10
-763.25
20
792.5
30
0
11
-763.25
21
792.5
31
0
40
2.5
1
45
50
90
72
1
73
2
0
ENDBLK
5
20
330
0
100
AcDbEntity
100
AcDbBlockEnd
8
0
0
BLOCK
5
21
330
0
100
AcDbEntity
100
AcDbBlockBegin
8
0
2
*D5
70
1
10
0
20
0
30
0
3
*D5
1

0
LINE
5
700021
330
21
100
AcDbEntity
100
AcDbLine
8
0
420
14870768
10
-760
20
761
30
0
11
-755
21
761
31
0
0
LINE
5
700022
330
21
100
AcDbEntity
100
AcDbLine
8
0
420
14870768
10
-755
20
762.8
30
0
11
-755
21
759.2
31
0
0
TEXT
5
700023
330
21
100
AcDbEntity
100
AcDbText
8
0
420
14870768
10
-755
20
763.8
30
0
11
-755
21
763.8
31
0
40
2.5
1
R5
50
0
72
1
73
2
0
ENDBLK
5
22
330
0
100
AcDbEntity
100
AcDbBlockEnd
8
0
0
BLOCK
5
23
330
0
100
AcDbEntity
100
AcDbBlockBegin
8
0
2
*D6
70
1
10
0
20
0
30
0
3
*D6
1

0
LINE
5
700024
330
23
100
AcDbEntity
100
AcDbLine
8
0
420
14870768
10
-772
20
800
30
0
11
-768.5
21
800
31
0
0
LINE
5
700025
330
23
100
AcDbEntity
100
AcDbLine
8
0
420
14870768
10
-768.5
20
801.8
30
0
11
-768.5
21
798.2
31
0
0
TEXT
5
700026
330
23
100
AcDbEntity
100
AcDbText
8
0
420
14870768
10
-768.5
20
802.8
30
0
11
-768.5
21
802.8
31
0
40
2.5
1
R3.5
50
0
72
1
73
2
0
ENDBLK
5
24
330
0
100
AcDbEntity
100
AcDbBlockEnd
8
0
0
ENDSEC
0
SECTION
2
ENTITIES
0
DIMENSION
5
700001
330
11
100
AcDbEntity
100
AcDbDimension
8
0
420
14870768
280
0
2
*D1
10
-772
20
822.4231584798875
30
0
11
-759
21
825.6731584798875
31
0
70
32
1

210
0
220
0
230
1
3
Standard
71
5
72
1
41
1
73
0
74
0
75
0
51
0
100
AcDbAlignedDimension
100
AcDbRotatedDimension
12
0
22
0
32
0
42
26
52
0
53
0
54
0
13
-772
23
800
33
0
14
-746
24
800
34
0
15
0
25
0
35
0
16
0
26
0
36
0
40
0
50
0
1001
WEBCAD_DIM
1000
{"v":1,"sv":"slash","as":[1,1],"ds":[2.5,1.5,3.6,4.5,0.25,0.35]}
0
DIMENSION
5
700002
330
11
100
AcDbEntity
100
AcDbDimension
8
0
420
14870768
280
0
2
*D2
10
-780
20
837.9941449766555
30
0
11
-759
21
841.2441449766555
31
0
70
32
1

210
0
220
0
230
1
3
Standard
71
5
72
1
41
1
73
0
74
0
75
0
51
0
100
AcDbAlignedDimension
100
AcDbRotatedDimension
12
0
22
0
32
0
42
42
52
0
53
0
54
0
13
-780
23
800
33
0
14
-738
24
800
34
0
15
0
25
0
35
0
16
0
26
0
36
0
40
0
50
0
1001
WEBCAD_DIM
1000
{"v":1,"sv":"slash","as":[1,1],"ds":[2.5,1.5,3.6,4.5,0.25,0.35]}
0
DIMENSION
5
700003
330
11
100
AcDbEntity
100
AcDbDimension
8
0
420
14870768
280
0
2
*D3
10
-731.377800546949
20
800
30
0
11
-734.627800546949
21
807.5
31
0
70
32
1

210
0
220
0
230
1
3
Standard
71
5
72
1
41
1
73
0
74
0
75
0
51
0
100
AcDbAlignedDimension
100
AcDbRotatedDimension
12
0
22
0
32
0
42
15
52
0
53
0
54
0
13
-734.5
23
800
33
0
14
-734.5
24
815
34
0
15
0
25
0
35
0
16
0
26
0
36
0
40
0
50
90
1001
WEBCAD_DIM
1000
{"v":1,"sv":"slash","as":[1,1],"ds":[2.5,1.5,3.6,4.5,0.25,0.35]}
0
DIMENSION
5
700004
330
11
100
AcDbEntity
100
AcDbDimension
8
0
420
14870768
280
0
2
*D4
10
-760
20
770
30
0
11
-763.25
21
792.5
31
0
70
32
1

210
0
220
0
230
1
3
Standard
71
5
72
1
41
1
73
0
74
0
75
0
51
0
100
AcDbAlignedDimension
100
AcDbRotatedDimension
12
0
22
0
32
0
42
45
52
0
53
0
54
0
13
-760
23
770
33
0
14
-760
24
815
34
0
15
0
25
0
35
0
16
0
26
0
36
0
40
0
50
90
1001
WEBCAD_DIM
1000
{"v":1,"sv":"slash","as":[1,1],"ds":[2.5,1.5,3.6,4.5,0.25,0.35]}
0
DIMENSION
5
700005
330
11
100
AcDbEntity
100
AcDbDimension
8
0
420
14870768
280
0
2
*D5
10
-760
20
761
30
0
11
-755
21
763.8
31
0
70
36
1
R<>
210
0
220
0
230
1
3
Standard
100
AcDbRadialDimension
15
-755
25
761
35
0
42
5
40
0
1001
WEBCAD_DIM
1000
{"v":1,"sv":"slash","as":[1,1],"ds":[2.5,1.5,3.6,4.5,0.25,0.35]}
0
DIMENSION
5
700006
330
11
100
AcDbEntity
100
AcDbDimension
8
0
420
14870768
280
0
2
*D6
10
-772
20
800
30
0
11
-768.5
21
802.8
31
0
70
36
1
R<>
210
0
220
0
230
1
3
Standard
100
AcDbRadialDimension
15
-768.5
25
800
35
0
42
3.5
40
0
1001
WEBCAD_DIM
1000
{"v":1,"sv":"slash","as":[1,1],"ds":[2.5,1.5,3.6,4.5,0.25,0.35]}
0
LWPOLYLINE
5
25
330
11
100
AcDbEntity
100
AcDbPolyline
8
0
6
ByLayer
62
256
370
-1
90
5
70
1
10
-850
20
815
10
-670
20
815
10
-670
20
720
10
-850
20
720
10
-850
20
815
0
ARC
5
26
330
11
100
AcDbEntity
100
AcDbCircle
8
0
10
-90
20
-90
30
0
40
3.5
100
AcDbArc
50
-171.86996394422445
51
0
0
ARC
5
27
330
11
100
AcDbEntity
100
AcDbCircle
8
0
10
-780
20
800
30
0
40
3.5
100
AcDbArc
50
90
51
-90
0
ARC
5
28
330
11
100
AcDbEntity
100
AcDbCircle
8
0
10
-772
20
800
30
0
40
3.5
100
AcDbArc
50
-90
51
90
0
LINE
5
29
330
11
100
AcDbEntity
100
AcDbLine
8
0
10
-780
20
803.5
30
0
11
-772
21
803.5
31
0
0
LINE
5
2A
330
11
100
AcDbEntity
100
AcDbLine
8
0
10
-780
20
796.5
30
0
11
-772
21
796.5
31
0
0
ARC
5
2B
330
11
100
AcDbEntity
100
AcDbCircle
8
0
10
-746
20
800
30
0
40
3.5
100
AcDbArc
50
90
51
-90
0
ARC
5
2C
330
11
100
AcDbEntity
100
AcDbCircle
8
0
10
-738
20
800
30
0
40
3.5
100
AcDbArc
50
-90
51
90
0
LINE
5
2D
330
11
100
AcDbEntity
100
AcDbLine
8
0
10
-746
20
803.5
30
0
11
-738
21
803.5
31
0
0
LINE
5
2E
330
11
100
AcDbEntity
100
AcDbLine
8
0
10
-746
20
796.5
30
0
11
-738
21
796.5
31
0
0
ARC
5
2F
330
11
100
AcDbEntity
100
AcDbCircle
8
0
10
-760
20
765
30
0
40
5
100
AcDbArc
50
0
51
-180
0
LINE
5
30
330
11
100
AcDbEntity
100
AcDbLine
8
0
10
-765
20
765
30
0
11
-765
21
761
31
0
0
LINE
5
31
330
11
100
AcDbEntity
100
AcDbLine
8
0
10
-755
20
765
30
0
11
-755
21
761
31
0
0
ARC
5
32
330
11
100
AcDbEntity
100
AcDbCircle
8
0
10
-760
20
761
30
0
40
5
100
AcDbArc
50
-180
51
0
0
CIRCLE
5
33
330
11
100
AcDbEntity
100
AcDbCircle
8
0
10
-800
20
790
30
0
40
5
0
CIRCLE
5
34
330
11
100
AcDbEntity
100
AcDbCircle
8
0
10
-790
20
731
30
0
40
3.5
0
CIRCLE
5
35
330
11
100
AcDbEntity
100
AcDbCircle
8
0
10
-835
20
731
30
0
40
3.5
0
CIRCLE
5
36
330
11
100
AcDbEntity
100
AcDbCircle
8
0
10
-730
20
731
30
0
40
3.5
0
CIRCLE
5
37
330
11
100
AcDbEntity
100
AcDbCircle
8
0
10
-685
20
731
30
0
40
3.5
0
ENDSEC
0
SECTION
2
OBJECTS
0
DICTIONARY
5
1
330
0
100
AcDbDictionary
281
1
3
ACAD_GROUP
350
15
0
DICTIONARY
5
15
330
1
100
AcDbDictionary
281
1
0
ENDSEC
0
EOF